# xmcd
#
# Track frame offsets:
#	150
#	16361
#	30403
#	39602
#	55782
#	69892
#	83600
#	97432
#	109046
#	121237
#	132922
#	147860
#
# Disc length: 2173 seconds
#
# Revision: 0
# Processed by: cddbd v1.5.2PL0 Copyright (c) Steve Scherf et al.
# Submitted via: dBpowerAMP V4.0
#
DISCID=9a087b0c
DTITLE=Various Artist - R and B Classics
DYEAR=2008
DGENRE=R&B
TTITLE0=If You Don't Know Me By Now
TTITLE1=Spanish Harlem
TTITLE2=Every Beat Of My Heart
TTITLE3=Joanna
TTITLE4=You Really Got a Hold on Me
TTITLE5=Tell It Like It Is
TTITLE6=Band of Gold
TTITLE7=If You Need Me
TTITLE8=My Prayer
TTITLE9=Hold On, I'm Coming
TTITLE10=Don't Make Me Over
TTITLE11=My Guy
EXTD=
EXTT0=
EXTT1=
EXTT2=
EXTT3=
EXTT4=
EXTT5=
EXTT6=
EXTT7=
EXTT8=
EXTT9=
EXTT10=
EXTT11=
PLAYORDER=
